<svg id="Layer_1" data-name="Layer 1" xmlns="http://www.w3.org/2000/svg" viewBox="0 0 84 84.86"><defs><style>.cls-1{fill:#1263a1;}.cls-2{fill:#38b772;}.cls-3{fill:#fff;}</style></defs><title>Artboard 1 copy</title><path class="cls-1" d="M23.25,13A34.39,34.39,0,1,1,59.74,71.34Z"/><path class="cls-2" d="M23.25,13,59.74,71.34A34.39,34.39,0,0,1,23.25,13Z"/><polygon class="cls-3" points="14.72 27.38 33.47 26.6 39.49 36.04 35.16 41.01 30.65 33.42 18.7 33.92 14.72 27.38"/><polygon class="cls-3" points="36.41 42.87 40.65 37.7 44.14 43.07 40.01 48.13 36.41 42.87"/><polygon class="cls-3" points="45.29 44.75 41.07 50.26 47.96 61.41 67.03 25.2 39.09 26.37 42.57 32.44 55.94 31.89 47.66 48.38 45.29 44.75"/><path class="cls-3" d="M28,36.42l17.9,28-3.51,5.79L20.61,36.73Z"/></svg>