<?xml version="1.0" encoding="utf-8"?>
<!-- Generator: Adobe Illustrator 23.1.0, SVG Export Plug-In . SVG Version: 6.00 Build 0)  -->
<svg version="1.1" id="Layer_1" xmlns="http://www.w3.org/2000/svg" xmlns:xlink="http://www.w3.org/1999/xlink" x="0px" y="0px"
	 viewBox="0 0 50 62.5" style="enable-background:new 0 0 50 62.5;" xml:space="preserve">
<style type="text/css">
	.st0{fill:#1263A1;}
</style>
<path class="st0" d="M41,28.1c-2.7,0-4.9,2.1-5.2,4.7l-3.7-0.4c0-0.1,0-0.2,0-0.3c0-2.6-1.2-5-3-6.5l5.6-8.2c0.5,0.2,1,0.3,1.5,0.3
	c2.2,0,4-1.8,4-4s-1.8-4-4-4s-4,1.8-4,4c0,1.3,0.6,2.4,1.6,3.1l-5.5,8.1c-1.4-0.9-3-1.4-4.8-1.4c-1.3,0-2.4,0.3-3.5,0.8l-6-10.1
	c1.2-0.7,2-2,2-3.4c0-2.2-1.8-4-4-4s-4,1.8-4,4s1.8,4,4,4c0.4,0,0.8-0.1,1.1-0.2l6.1,10.2c-1.4,0.9-2.6,2.1-3.3,3.6L13.1,27
	c0-0.2,0-0.3,0-0.5c0-1.7-1.4-3.1-3.1-3.1s-3.1,1.4-3.1,3.1s1.4,3.1,3.1,3.1c1.2,0,2.3-0.7,2.8-1.7l2.7,1.2c-0.3,1-0.5,2-0.5,2.9
	c0,2.7,1.2,5.1,3.2,6.7l-5.6,6.8c-0.8-0.7-1.9-1.1-3-1.1c-2.7,0-4.9,2.2-4.9,4.9s2.2,4.9,4.9,4.9s4.9-2.2,4.9-4.9
	c0-1.2-0.4-2.2-1.1-3.1l5.7-6.9c1.3,0.9,2.9,1.4,4.6,1.4c1.2,0,2.4-0.3,3.5-0.7l6.5,8.7c-0.7,0.7-1.2,1.7-1.2,2.8c0,2.2,1.8,4,4,4
	s4-1.8,4-4s-1.8-4-4-4c-0.7,0-1.4,0.2-2,0.6l-6.4-8.6c2.2-1.3,3.7-3.5,4.1-6.1l3.8,0.4c0.2,2.7,2.5,4.8,5.2,4.8
	c2.9,0,5.3-2.4,5.3-5.2C46.3,30.4,43.9,28.1,41,28.1z"/>
</svg>
