<?xml version="1.0" encoding="utf-8"?>
<!-- Generator: Adobe Illustrator 23.1.0, SVG Export Plug-In . SVG Version: 6.00 Build 0)  -->
<svg version="1.1" id="Layer_1" xmlns="http://www.w3.org/2000/svg" xmlns:xlink="http://www.w3.org/1999/xlink" x="0px" y="0px"
	 viewBox="0 0 100 96.9" style="enable-background:new 0 0 100 96.9;" xml:space="preserve">
<style type="text/css">
	.st0{fill:#1263A1;}
</style>
<g>
	<path class="st0" d="M40.9,47.5c-3,0-5.7,0-8.4,0c-4.6,0-9.2,0-13.8,0c-3.6,0-5.4-1.8-5.4-5.4c0-4.5,0-9,0-13.5
		c0-3.6,1.8-5.3,5.4-5.3c5.8,0,11.7,0,17.5,0c1.3,0,1.8-0.4,1.7-1.7c-0.1-3.8,0.3-3.3-3.3-3.4c-0.5,0-1.1,0.1-1.6-0.1
		c-0.5-0.2-1.3-0.7-1.3-1.2c-0.2-1.2-0.2-2.4,0.1-3.6c0.3-1.8,1.5-2.5,3.6-2.5c8.9,0,17.7,0,26.6,0c1,0,1.9,0,2.9,0
		c2.1,0.1,3.3,1.2,3.3,3.3c0.1,4.1,0.1,4-3.7,4c-2.5,0-2.5,0-2.5,2.5c0,0.2,0,0.4,0,0.6c0,1.9,0,1.9,1.9,1.9c5.9,0,11.8,0,17.7,0
		c3.3,0,5.1,1.8,5.1,5.1c0,4.7,0,9.4,0,14.1c0,3.2-1.9,5.1-5.1,5.1c-1.4,0-2.9,0-4.3,0c-1.2,0-1-0.8-1-1.5c-0.1-0.7,0-1.4,1-1.3
		c1.4,0,2.8,0,4.2,0c1.8,0,2.5-0.6,2.5-2.4c0-4.7,0-9.4,0-14.1c0-1.7-0.7-2.3-2.4-2.3c-16.5,0-33,0-49.5,0c-4.5,0-8.9,0-13.4,0
		c-2,0-2.6,0.6-2.6,2.5c0,4.5,0,9,0,13.5c0,2.1,0.6,2.7,2.6,2.7c6.8,0,13.6,0,20.4,0c1.3,0,1.9-0.3,1.8-1.8
		c-0.1-2.8,0.1-2.9,2.9-2.9c4.4,0,8.7,0,13.1,0c1.8,0,2.2,0.4,2.2,2.2c0,0.7-0.1,1.4,0,2c0.2,1.2-0.4,1.6-1.6,1.5
		c-1,0-1.3-0.4-1.2-1.3c0.2-1.3-0.3-1.7-1.7-1.7c-3.2,0.1-6.4,0.1-9.6,0c-1,0-1.5,0.3-1.5,1.4c0.1,1.2,0.1,2.4,0,3.6
		c-0.1,1.2,0.5,1.6,1.6,1.6c2.1,0,4.2,0,6.3,0c1.1,0,1.3,0.4,1.3,1.4c0,0.9-0.2,1.4-1.3,1.4c-2.8-0.1-5.7,0-8.5,0
		c-1.7,0-2.2-0.5-2.2-2.3C40.9,49.1,40.9,48.4,40.9,47.5z M49.9,23.2C49.9,23.2,49.9,23.2,49.9,23.2c2,0,4,0,6,0
		c3.4,0,3.3,0,3.4-3.4c0-1.4-0.5-1.7-1.7-1.7c-4.4,0.1-8.8,0-13.2,0c-3.8,0-3.8,0-3.8,3.8c0,1.1,0.4,1.3,1.4,1.3
		C44.6,23.2,47.3,23.2,49.9,23.2z M50,15.5c4.7,0,9.5,0,14.2,0c0.7,0,1.4,0.1,1.4-0.9c0-1-0.8-0.9-1.4-0.9c-9.4,0-18.8,0-28.1,0
		c-0.7,0-1.5-0.1-1.5,1c0,1.2,0.9,0.9,1.6,0.9C40.7,15.5,45.3,15.5,50,15.5z"/>
	<path class="st0" d="M68.4,84.3c-4.1,0-4.6,0.6-4.5-4.3c0-0.5-0.4-1.2-0.8-1.4c-0.3-0.2-1,0.2-1.4,0.5c-0.7,0.6-1.3,1.3-2,1.9
		c-0.7,0.6-1.4,0.6-2,0c-1.4-1.4-2.8-2.7-4.2-4.2c-0.7-0.7-0.6-1.5,0-2.2c0.7-0.7,1.4-1.3,2-2.1c0.3-0.3,0.4-1,0.3-1.3
		c-0.2-0.4-0.7-0.7-1.2-0.7c-0.8-0.1-1.7,0-2.6,0c-1.2,0-1.9-0.6-1.9-1.8c0-1.8,0-3.5,0-5.3c0-1.2,0.7-1.8,1.9-1.8
		c0.9,0,1.7,0.1,2.6,0c0.4-0.1,1-0.4,1.2-0.7c0.1-0.3,0-1-0.3-1.3c-0.6-0.7-1.3-1.4-2-2.1c-0.7-0.7-0.7-1.5,0-2.2
		c1.4-1.4,2.8-2.8,4.2-4.2c0.7-0.6,1.4-0.6,2,0c0.7,0.7,1.3,1.4,2.1,2c0.3,0.3,1,0.5,1.3,0.4c0.4-0.2,0.7-0.8,0.8-1.3
		c0.1-0.8,0-1.6,0-2.4c0-1.3,0.6-2,1.9-2c1.7,0,3.5,0,5.2,0c1.3,0,1.9,0.7,1.9,2c0,0.9-0.1,1.7,0,2.6c0.1,0.4,0.4,0.9,0.8,1.1
		c0.3,0.1,0.9,0,1.2-0.3c0.7-0.6,1.4-1.3,2.1-2c0.8-0.8,1.5-0.8,2.3,0c1.4,1.3,2.7,2.7,4.1,4.1c0.7,0.7,0.7,1.5,0,2.2
		c-0.7,0.7-1.4,1.3-2,2.1c-0.3,0.3-0.4,1-0.3,1.3c0.1,0.4,0.7,0.7,1.2,0.7c0.8,0.1,1.7,0,2.6,0c1.2,0,1.9,0.6,1.9,1.8
		c0,1.8,0,3.5,0,5.3c0,1.2-0.7,1.8-1.9,1.8c-0.9,0-1.7-0.1-2.6,0c-0.4,0.1-1,0.4-1.2,0.7c-0.1,0.3,0,1,0.3,1.3
		c0.6,0.7,1.3,1.4,2,2.1c0.7,0.7,0.7,1.5,0,2.2c-1.4,1.4-2.8,2.8-4.2,4.2c-0.7,0.6-1.4,0.6-2,0c-0.7-0.7-1.4-1.5-2.2-2.1
		c-0.3-0.2-0.9-0.4-1.2-0.3c-0.4,0.2-0.7,0.7-0.8,1.1c-0.1,0.7,0,1.5,0,2.3c0,1.7-0.5,2.2-2.2,2.3C69.9,84.3,69.2,84.3,68.4,84.3z
		 M56.2,56.5c0.8,0.7,1.6,1.3,2.3,2c1,1-0.2,5.3-1.6,5.7c-0.3,0.1-0.6,0.1-0.9,0.1c-0.5,0-1,0-1.4,0c-1.3-0.1-1.8,0.4-1.8,1.7
		c0,1.3,0.3,1.9,1.7,1.7c0.5-0.1,1.1,0,1.6,0c1,0,1.4,0.5,1.9,1.4c1.3,2.4,1.4,4.4-1,6c-0.2,0.1-0.3,0.8-0.2,1.1
		c1,1.8,1.9,1.9,3.3,0.5c0.2-0.2,0.4-0.4,0.6-0.6c0.8-0.9,1.6-0.8,2.7-0.5c2.5,0.7,3.8,2.1,3.3,4.8c-0.2,1.2,0.9,1.1,1.7,1.1
		c0.8,0,1.9,0.1,1.7-1.1c-0.6-3,1-4.2,3.6-4.9c0.9-0.3,1.7-0.3,2.3,0.4c0.7,0.7,1.4,1.4,2,2c0.9-0.8,1.7-1.4,2.4-2
		c-0.3-0.4-0.5-0.6-0.6-0.8c-2.3-2.5-2.8-1.9-1.2-5.6c0.6-1.4,1.2-1.9,2.6-1.8c0.4,0,0.9,0,1.3,0c1.1,0.1,1.4-0.5,1.4-1.5
		c0-1.8-0.1-1.9-1.9-2c-0.9,0-2.3,0.1-2.7-0.5c-0.8-1.1-1.4-2.6-1.6-4c-0.1-0.7,0.9-1.6,1.5-2.2c1-0.9,1.1-1.5,0.1-2.5
		c-1-1-1.6-0.9-2.4,0.1c-0.3,0.4-0.7,0.9-1.1,1.1c-0.6,0.3-1.4,0.6-1.9,0.4c-2.4-0.7-4.5-1.7-3.8-4.9c0.2-0.9-0.5-1.2-1.3-1.2
		c-1.9-0.1-2.1,0-2.1,1.9c0,0.6,0.1,1.2,0,1.7c-0.1,0.4-0.3,1-0.6,1.2c-1.1,0.6-2.3,1.1-3.4,1.4c-0.5,0.1-1.2-0.2-1.6-0.6
		c-0.8-0.6-1.5-1.3-2.3-2.1C57.9,54.7,57.2,55.4,56.2,56.5z"/>
	<path class="st0" d="M16.4,66c0-4.6,0-9.2,0-13.8c0-1.1,0.3-1.4,1.4-1.4c1.1,0,1.3,0.4,1.3,1.4c0,8.9,0,17.7,0,26.6
		c0,2.2,0.5,2.7,2.7,2.7c0.6,0,1.1,0,1.7,0c1.6,0,2,0.4,1.6,1.9c-0.1,0.3-0.4,0.7-0.7,0.7c-1.5,0-3,0.1-4.4-0.2
		c-2.4-0.4-3.6-2.1-3.7-4.6C16.4,75,16.4,70.5,16.4,66z"/>
	<path class="st0" d="M46.6,76.5c-2.8,0-5.6,0-8.4,0c-2.7,0-5.5,0-8.2,0c-1.1,0-1.2-0.5-1.3-1.4c0-1,0.2-1.4,1.3-1.3
		c5.1,0,10.1,0,15.2,0C46.9,73.9,47,74.1,46.6,76.5z"/>
	<path class="st0" d="M40,61.3c-1.8,0-3.6,0-5.5,0c-0.9,0-1.3-0.3-1.2-1.2c0-0.8-0.1-1.5,1.1-1.5c3.7,0,7.5,0,11.2,0
		c1.1,0,1.1,0.6,1.1,1.4c0,0.8,0,1.4-1.1,1.4C43.8,61.2,41.9,61.3,40,61.3z"/>
	<path class="st0" d="M46.7,84.3c-1.6,0-3.2-0.1-4.7,0c-1.1,0-1.1-0.6-1.1-1.4c0-0.8,0-1.4,1.1-1.4c3.2,0,6.5,0,9.7,0
		c1.2,0,1.1,0.7,1.1,1.5c0,0.8-0.2,1.3-1.1,1.2C50.1,84.2,48.4,84.3,46.7,84.3z"/>
	<path class="st0" d="M30,68.8c-1,0-1.9,0-2.9,0c-1,0.1-1.5-0.2-1.5-1.4c0-1.3,0.6-1.4,1.6-1.3c2,0,4,0.1,6,0c1.1,0,1.2,0.5,1.2,1.4
		c0,0.9-0.2,1.4-1.3,1.4C32.1,68.8,31.1,68.8,30,68.8z"/>
	<path class="st0" d="M39.3,66.1c1.3-0.3,1.3,0.5,1.4,1.4c0.1,1.2-0.5,1.3-1.5,1.3c-1.1,0-1.3-0.5-1.3-1.5
		C37.9,66.3,38.3,65.9,39.3,66.1z"/>
	<path class="st0" d="M45.5,66.1c1.2-0.3,1.2,0.5,1.3,1.4c0.1,1.2-0.6,1.3-1.5,1.3c-1.2,0.1-1.2-0.6-1.3-1.5
		C44,66.2,44.5,66,45.5,66.1z"/>
	<path class="st0" d="M37.5,83c0.3,1.2-0.4,1.3-1.4,1.3c-1,0-1.3-0.4-1.3-1.3c0-1,0.3-1.5,1.4-1.4C37.3,81.6,37.7,81.9,37.5,83z"/>
	<path class="st0" d="M68.3,72c-3.3,0-5.8-2.7-5.8-6c0-3.4,2.6-6,6-5.9c3.4,0,5.9,2.6,5.9,6.1C74.3,69.4,71.7,72,68.3,72z
		 M68.5,62.7c-1.8,0-3.3,1.5-3.3,3.2c0,1.7,1.5,3.2,3.2,3.2c1.7,0,3.3-1.5,3.3-3.2C71.7,64.3,70.2,62.8,68.5,62.7z"/>
</g>
</svg>
