<?xml version="1.0" encoding="utf-8"?>
<!-- Generator: Adobe Illustrator 23.1.0, SVG Export Plug-In . SVG Version: 6.00 Build 0)  -->
<svg version="1.1" id="Layer_1" xmlns="http://www.w3.org/2000/svg" xmlns:xlink="http://www.w3.org/1999/xlink" x="0px" y="0px"
	 viewBox="0 0 64 80" style="enable-background:new 0 0 64 80;" xml:space="preserve">
<style type="text/css">
	.st0{display:none;}
	.st1{display:inline;}
	.st2{fill:none;stroke:#DB2B42;stroke-miterlimit:10;}
	.st3{fill:none;stroke:#8AD5DD;stroke-miterlimit:10;}
	.st4{stroke:#2D2D2D;stroke-miterlimit:10;}
	.st5{fill:none;stroke:#FFFFFF;stroke-miterlimit:10;}
	.st6{stroke:#FFFFFF;stroke-miterlimit:10;}
	.st7{fill:#1263A1;}
	.st8{fill:none;stroke:#000000;stroke-width:1.4;stroke-miterlimit:10;}
	.st9{fill:none;stroke:#000000;stroke-miterlimit:10;}
</style>
<g class="st0">
	<rect x="-576.1" y="-102.1" class="st1" width="824.6" height="414.1"/>
</g>
<g class="st0">
	<circle class="st1" cx="32" cy="32" r="32"/>
	<polyline class="st1" points="50.7,51.2 50.7,11.1 16.7,11.1 16.7,56.4 45.5,56.4 45.5,56.4 50.7,51.2 	"/>
	<polygon class="st1" points="43.8,54.7 15,54.7 15,9.3 49,9.3 49,49.5 	"/>
	<g class="st1">
		<path d="M25.4,34.5c-3.6,0-6.5,2.9-6.5,6.5s2.9,6.5,6.5,6.5s6.5-2.9,6.5-6.5h-6.5V34.5z"/>
		<path d="M26.1,33.8v6.5h6.5C32.5,36.7,29.6,33.8,26.1,33.8z"/>
		<line class="st2" x1="35.3" y1="44.1" x2="35.3" y2="46.4"/>
		<line class="st3" x1="37.3" y1="38.8" x2="37.3" y2="46.4"/>
		<line class="st2" x1="39.3" y1="35" x2="39.3" y2="46.4"/>
		<line class="st3" x1="41.3" y1="38.6" x2="41.3" y2="46.4"/>
		<line class="st2" x1="43.3" y1="42.3" x2="43.3" y2="46.4"/>
	</g>
	<polygon class="st1" points="43.8,54.7 43.8,49.5 49,49.5 	"/>
	<g class="st1">
		<polyline class="st4" points="22.4,26.1 28.9,18.1 35.1,26.1 41.6,18.1 		"/>
		<circle cx="22.4" cy="26.8" r="2.2"/>
		<circle cx="28.9" cy="18.7" r="2.2"/>
		<circle cx="35.1" cy="26.8" r="2.2"/>
		<circle cx="41.6" cy="18.7" r="2.2"/>
	</g>
	<circle class="st1" cx="32" cy="32" r="32"/>
	<polyline class="st1" points="50.7,51.2 50.7,11.1 16.7,11.1 16.7,56.4 45.5,56.4 45.5,56.4 50.7,51.2 	"/>
	<polygon class="st1" points="43.8,54.7 15,54.7 15,9.3 49,9.3 49,49.5 	"/>
	<g class="st1">
		<path d="M25.4,34.5c-3.6,0-6.5,2.9-6.5,6.5s2.9,6.5,6.5,6.5s6.5-2.9,6.5-6.5h-6.5V34.5z"/>
		<path d="M26.1,33.8v6.5h6.5C32.5,36.7,29.6,33.8,26.1,33.8z"/>
		<line class="st2" x1="35.3" y1="44.1" x2="35.3" y2="46.4"/>
		<line class="st3" x1="37.3" y1="38.8" x2="37.3" y2="46.4"/>
		<line class="st2" x1="39.3" y1="35" x2="39.3" y2="46.4"/>
		<line class="st3" x1="41.3" y1="38.6" x2="41.3" y2="46.4"/>
		<line class="st2" x1="43.3" y1="42.3" x2="43.3" y2="46.4"/>
	</g>
	<polygon class="st1" points="43.8,54.7 43.8,49.5 49,49.5 	"/>
	<g class="st1">
		<polyline class="st4" points="22.4,26.1 28.9,18.1 35.1,26.1 41.6,18.1 		"/>
		<circle cx="22.4" cy="26.8" r="2.2"/>
		<circle cx="28.9" cy="18.7" r="2.2"/>
		<circle cx="35.1" cy="26.8" r="2.2"/>
		<circle cx="41.6" cy="18.7" r="2.2"/>
	</g>
</g>
<g class="st0">
	<circle class="st1" cx="32" cy="32" r="32"/>
	<polygon class="st1" points="43.8,54.7 15,54.7 15,9.3 49,9.3 49,49.5 	"/>
	<g class="st1">
		<path d="M25.4,34.5c-3.6,0-6.5,2.9-6.5,6.5s2.9,6.5,6.5,6.5s6.5-2.9,6.5-6.5h-6.5V34.5z"/>
		<path d="M26.1,33.8v6.5h6.5C32.5,36.7,29.6,33.8,26.1,33.8z"/>
		<line class="st2" x1="35.3" y1="44.1" x2="35.3" y2="46.4"/>
		<line class="st5" x1="37.3" y1="38.8" x2="37.3" y2="46.4"/>
		<line class="st2" x1="39.3" y1="35" x2="39.3" y2="46.4"/>
		<line class="st5" x1="41.3" y1="38.6" x2="41.3" y2="46.4"/>
		<line class="st2" x1="43.3" y1="42.3" x2="43.3" y2="46.4"/>
	</g>
	<polygon class="st1" points="43.8,54.7 43.8,49.5 49,49.5 	"/>
	<g class="st1">
		<polyline class="st6" points="22.4,26.1 28.9,18.1 35.1,26.1 41.6,18.1 		"/>
		<circle cx="22.4" cy="26.8" r="2.2"/>
		<circle cx="28.9" cy="18.7" r="2.2"/>
		<circle cx="35.1" cy="26.8" r="2.2"/>
		<circle cx="41.6" cy="18.7" r="2.2"/>
	</g>
</g>
<g class="st0">
	<g class="st1">
		<polygon points="48.7,64 8,64 8,0 56,0 56,56.7 		"/>
		<g>
			<path d="M22.6,35.5c-5.1,0-9.1,4.1-9.1,9.1s4.1,9.1,9.1,9.1s9.1-4.1,9.1-9.1h-9.1C22.6,44.7,22.6,35.5,22.6,35.5z"/>
			<path d="M23.6,34.5v9.1h9.1C32.8,38.6,28.7,34.5,23.6,34.5z"/>
			<line class="st2" x1="36.7" y1="49.1" x2="36.7" y2="52.3"/>
			<line class="st3" x1="39.5" y1="41.6" x2="39.5" y2="52.3"/>
			<line class="st2" x1="42.3" y1="36.2" x2="42.3" y2="52.3"/>
			<line class="st3" x1="45.2" y1="41.3" x2="45.2" y2="52.3"/>
			<line class="st2" x1="48" y1="46.5" x2="48" y2="52.3"/>
		</g>
		<polygon points="48.7,64 48.7,56.7 56,56.7 		"/>
		<g>
			<polyline class="st4" points="18.4,23.7 27.7,12.4 36.3,23.7 45.6,12.4 			"/>
			<circle cx="18.4" cy="24.6" r="3.2"/>
			<circle cx="27.7" cy="13.3" r="3.2"/>
			<circle cx="36.3" cy="24.6" r="3.2"/>
			<circle cx="45.6" cy="13.3" r="3.2"/>
		</g>
		<polygon points="48.7,64 8,64 8,0 56,0 56,56.7 		"/>
		<g>
			<path d="M22.6,35.5c-5.1,0-9.1,4.1-9.1,9.1s4.1,9.1,9.1,9.1s9.1-4.1,9.1-9.1h-9.1C22.6,44.7,22.6,35.5,22.6,35.5z"/>
			<path d="M23.6,34.5v9.1h9.1C32.8,38.6,28.7,34.5,23.6,34.5z"/>
			<line class="st2" x1="36.7" y1="49.1" x2="36.7" y2="52.3"/>
			<line class="st3" x1="39.5" y1="41.6" x2="39.5" y2="52.3"/>
			<line class="st2" x1="42.3" y1="36.2" x2="42.3" y2="52.3"/>
			<line class="st3" x1="45.2" y1="41.3" x2="45.2" y2="52.3"/>
			<line class="st2" x1="48" y1="46.5" x2="48" y2="52.3"/>
		</g>
		<polygon points="48.7,64 48.7,56.7 56,56.7 		"/>
		<g>
			<polyline class="st4" points="18.4,23.7 27.7,12.4 36.3,23.7 45.6,12.4 			"/>
			<circle cx="18.4" cy="24.6" r="3.2"/>
			<circle cx="27.7" cy="13.3" r="3.2"/>
			<circle cx="36.3" cy="24.6" r="3.2"/>
			<circle cx="45.6" cy="13.3" r="3.2"/>
		</g>
	</g>
</g>
<g>
	<path class="st7" d="M56,64.7V8H8v64h40.7L56,64.7z M48.9,69.8v-4.9h4.9L48.9,69.8z M9.4,9.4h45.2v54.1h-7.1v7.1H9.4V9.4z"/>
	<path class="st7" d="M22.6,43.5c-5.1,0-9.1,4.1-9.1,9.1s4.1,9.1,9.1,9.1s9.1-4.1,9.1-9.1h-9.1C22.6,52.7,22.6,43.5,22.6,43.5z
		 M29.5,54.7c-0.9,3-3.6,5.1-6.9,5.1c-3.9,0-7.1-3.2-7.1-7.1c0-3.2,2.2-6,5.1-6.9v6.9v2h2H29.5z"/>
	<rect x="36" y="57.1" class="st7" width="1.4" height="3.2"/>
	<rect x="38.8" y="49.7" class="st7" width="1.4" height="10.7"/>
	<rect x="41.6" y="44.2" class="st7" width="1.4" height="16.1"/>
	<rect x="44.5" y="49.3" class="st7" width="1.4" height="11"/>
	<rect x="47.3" y="54.5" class="st7" width="1.4" height="5.8"/>
	<path class="st7" d="M23.6,42.5v9.1h9.1C32.8,46.6,28.7,42.5,23.6,42.5z"/>
	<path class="st7" d="M38.4,30.3l5.3-6.5c0.5,0.4,1.2,0.6,1.9,0.6c1.8,0,3.2-1.4,3.2-3.2s-1.4-3.2-3.2-3.2s-3.2,1.4-3.2,3.2
		c0,0.5,0.1,1,0.4,1.4l-5.6,6.9c-0.3-0.1-0.5-0.1-0.8-0.1c-0.3,0-0.5,0-0.8,0.1l-5.1-6.8c0.3-0.5,0.4-1,0.4-1.5
		c0-1.8-1.4-3.2-3.2-3.2s-3.2,1.4-3.2,3.2c0,0.5,0.1,1,0.4,1.4l-5.6,6.9c-0.3-0.1-0.5-0.1-0.8-0.1c-1.8,0-3.2,1.4-3.2,3.2
		s1.4,3.2,3.2,3.2s3.2-1.4,3.2-3.2c0-0.9-0.4-1.8-1.1-2.4l5.3-6.5c0.5,0.4,1.2,0.6,1.9,0.6c0.7,0,1.3-0.2,1.8-0.6l4.8,6.4
		c-0.7,0.6-1.1,1.4-1.1,2.4c0,1.8,1.4,3.2,3.2,3.2s3.2-1.4,3.2-3.2C39.5,31.7,39.1,30.9,38.4,30.3z"/>
</g>
<g class="st0">
	<circle class="st1" cx="32" cy="32" r="32"/>
	<polygon class="st1" points="8.8,0.8 55.5,0.8 55.5,56.1 47.5,63.5 8.8,63.5 	"/>
	<polygon class="st1" points="48.3,56.2 48.4,60.6 11.4,60.6 11.4,3.4 52.6,3.4 52.6,56.2 	"/>
	<path class="st1" d="M54.6,1.4v54.7l-6.5,6.5H9.4V1.4H54.6 M56,0H8v64h40.7l7.3-7.3V0L56,0z"/>
	<g class="st1">
		<g>
			<path d="M22.6,52.8c-4.5,0-8.1-3.7-8.1-8.1c0-4.2,3.1-7.6,7.1-8.1v9.1h9.1C30.2,49.7,26.8,52.8,22.6,52.8z"/>
			<path d="M20.6,37.8v6.9v2h2h6.9c-0.9,3-3.6,5.1-6.9,5.1c-3.9,0-7.1-3.2-7.1-7.1C15.5,41.4,17.7,38.7,20.6,37.8 M22.6,35.5
				c-5.1,0-9.1,4.1-9.1,9.1s4.1,9.1,9.1,9.1s9.1-4.1,9.1-9.1h-9.1L22.6,35.5L22.6,35.5z"/>
		</g>
		<path d="M23.6,34.5v9.1h9.1C32.8,38.6,28.7,34.5,23.6,34.5z"/>
		<line class="st8" x1="36.7" y1="49.1" x2="36.7" y2="52.3"/>
		<line class="st8" x1="39.5" y1="41.6" x2="39.5" y2="52.3"/>
		<line class="st8" x1="42.3" y1="36.2" x2="42.3" y2="52.3"/>
		<line class="st8" x1="45.2" y1="41.3" x2="45.2" y2="52.3"/>
		<line class="st8" x1="48" y1="46.5" x2="48" y2="52.3"/>
	</g>
	<g class="st1">
		<polyline class="st9" points="18.4,23.7 27.7,12.4 36.3,23.7 45.6,12.4 		"/>
		<circle cx="18.4" cy="24.6" r="3.2"/>
		<circle cx="27.7" cy="13.3" r="3.2"/>
		<circle cx="36.3" cy="24.6" r="3.2"/>
		<circle cx="45.6" cy="13.3" r="3.2"/>
	</g>
	<g class="st1">
		<line class="st8" x1="36.7" y1="49.1" x2="36.7" y2="52.3"/>
		<line class="st8" x1="39.5" y1="41.6" x2="39.5" y2="52.3"/>
		<line class="st8" x1="42.3" y1="36.2" x2="42.3" y2="52.3"/>
		<line class="st8" x1="45.2" y1="41.3" x2="45.2" y2="52.3"/>
		<line class="st8" x1="48" y1="46.5" x2="48" y2="52.3"/>
	</g>
	<g class="st1">
		<polyline class="st8" points="18.4,23.7 27.7,12.4 36.3,23.7 45.6,12.4 		"/>
		<circle cx="18.4" cy="24.6" r="3.2"/>
		<circle cx="27.7" cy="13.3" r="3.2"/>
		<circle cx="36.3" cy="24.6" r="3.2"/>
		<circle cx="45.6" cy="13.3" r="3.2"/>
	</g>
</g>
</svg>
