<svg height="496pt" viewBox="0 0 496 496" width="496pt" xmlns="http://www.w3.org/2000/svg"><g fill="#f0bc5e"><path d="m224 384h48v104h-48zm0 0"/><path d="m160 416h48v72h-48zm0 0"/><path d="m288 352h48v136h-48zm0 0"/></g><path d="m144 480h208v16h-208zm0 0"/><path d="m32 128h16v16h-16zm0 0"/><path d="m64 128h16v16h-16zm0 0"/><path d="m96 128h16v16h-16zm0 0"/><path d="m32 160h16v16h-16zm0 0"/><path d="m64 160h16v16h-16zm0 0"/><path d="m448 200h16v16h-16zm0 0"/><path d="m416 200h16v16h-16zm0 0"/><path d="m384 200h16v16h-16zm0 0"/><path d="m448 168h16v16h-16zm0 0"/><path d="m416 168h16v16h-16zm0 0"/><path d="m472 96h-104v-72c0-13.230469-10.769531-24-24-24h-192c-13.230469 0-24 10.769531-24 24v72h-104c-13.230469 0-24 10.769531-24 24v104c0 10.414062 6.710938 19.214844 16 22.527344v201.472656h144v-16h-128v-184h136v-16h-144c-4.40625 0-8-3.59375-8-8v-104c0-4.40625 3.59375-8 8-8h448c4.40625 0 8 3.59375 8 8v104c0 4.40625-3.59375 8-8 8h-145.601562v16h137.601562v184h-128v16h144v-201.472656c9.289062-3.3125 16-12.113282 16-22.527344v-104c0-13.230469-10.769531-24-24-24zm-152 0h-144v-48h144zm32 0h-16v-64h-176v64h-16v-72c0-4.40625 3.59375-8 8-8h192c4.40625 0 8 3.59375 8 8zm0 0"/><path d="m48 368h48v16h-48zm0 0"/><path d="m48 400h64v16h-64zm0 0"/><path d="m248 344c-48.519531 0-88-39.480469-88-88s39.480469-88 88-88 88 39.480469 88 88-39.480469 88-88 88zm0 0" fill="#f0bc5e"/><path d="m264 248h-32c-4.40625 0-8-3.59375-8-8v-8c0-4.40625 3.59375-8 8-8h32c4.40625 0 8 3.59375 8 8h16c0-13.230469-10.769531-24-24-24h-8v-16h-16v16h-8c-13.230469 0-24 10.769531-24 24v8c0 13.230469 10.769531 24 24 24h32c4.40625 0 8 3.59375 8 8v8c0 4.40625-3.59375 8-8 8h-32c-4.40625 0-8-3.59375-8-8h-16c0 13.230469 10.769531 24 24 24h8v16h16v-16h8c13.230469 0 24-10.769531 24-24v-8c0-13.230469-10.769531-24-24-24zm0 0"/></svg>