<svg id="Layer_35" enable-background="new 0 0 64 64" height="512" viewBox="0 0 64 64" width="512" xmlns="http://www.w3.org/2000/svg"><path d="m32 10.219 2.084-.52-3.564-3.564-2.136 1.28-.603-2.415h-7.562l-.603 2.415-2.136-1.28-5.345 5.345 1.28 2.136-2.415.603v4.314h2v-2.752l1.949-.486.534-.202.465-1.143-1.296-2.159 3.139-3.139 2.159 1.296 1.219-.496.612-2.452h4.438l.486 1.949.202.534 1.143.465 2.159-1.296 1.791 1.791z"/><path d="m58 10.219-2.415-.603 1.28-2.136-5.345-5.345-2.136 1.28-.603-2.415h-7.562l-.603 2.415-2.136-1.28-5.345 5.345 1.28 2.136-2.415.603v7.562l2.416.603-.969 1.616h18.553l1.795 3.59 3.07-3.07-1.28-2.136 2.415-.603z" fill="#f0bc5e"/><path d="m45 17c-1.654 0-3-1.346-3-3s1.346-3 3-3 3 1.346 3 3-1.346 3-3 3zm0-4c-.552 0-1 .448-1 1s.448 1 1 1 1-.448 1-1-.448-1-1-1z"/><path d="m27 37h34v8h-34z" fill="#f0bc5e"/><path d="m58 45c-1.654 0-3-1.346-3-3v-2c0-1.654 1.346-3 3-3s3 1.346 3 3v2c0 1.654-1.346 3-3 3zm0-6c-.552 0-1 .448-1 1v2c0 .552.448 1 1 1s1-.448 1-1v-2c0-.552-.448-1-1-1z"/><path d="m42 45c-1.654 0-3-1.346-3-3v-2c0-1.654 1.346-3 3-3s3 1.346 3 3v2c0 1.654-1.346 3-3 3zm0-6c-.552 0-1 .448-1 1v2c0 .552.448 1 1 1s1-.448 1-1v-2c0-.552-.448-1-1-1z"/><path d="m30 45c-1.654 0-3-1.346-3-3v-2c0-1.654 1.346-3 3-3s3 1.346 3 3v2c0 1.654-1.346 3-3 3zm0-6c-.552 0-1 .448-1 1v2c0 .552.448 1 1 1s1-.448 1-1v-2c0-.552-.448-1-1-1z"/><path d="m51 37h2v8h-2z"/><path d="m47 37h2v8h-2z"/><path d="m35 37h2v8h-2z"/><path d="m1 45h16v2h-16z"/><path d="m3 49h14v2h-14z"/><path d="m3 53h14v2h-14z"/><path d="m3 57h2v2h-2z"/><path d="m7 57h2v2h-2z"/><path d="m20.681 31.36h2.001v11.281h-2.001z" transform="matrix(.887 -.463 .463 .887 -14.662 14.235)"/><path d="m17.028 28.872h2.001v2.256h-2.001z" transform="matrix(.887 -.463 .463 .887 -11.836 11.747)"/><path d="m32.382 51h-6.775l-12.59-24.116-1.773.926 12.756 24.436v10.754h3.236l6.764-3.382v-7.382l1.618-3.236h27.382v-2h-28.618zm-.382 7.382-5.236 2.618h-.764v-8h6z"/><path d="m44.752 33 3.048-5.162.45.901c.698 1.395 2.101 2.261 3.66 2.261 2.255 0 4.09-1.835 4.09-4.09v-.181c0-.633-.149-1.266-.432-1.829l-2.95-5.9h-2.729c1.301-1.272 2.111-3.042 2.111-5 0-3.859-3.141-7-7-7s-7 3.141-7 7c0 1.958.81 3.728 2.111 5h-9.195c.047-.33.084-.662.084-1 0-3.859-3.141-7-7-7s-7 3.141-7 7c0 .337.037.67.085 1h-3.895v2h38.191l2.398 4.796c.144.287.22.61.22.934v.181c0 1.152-.938 2.09-2.09 2.09-.797 0-1.514-.442-1.87-1.155l-1.421-2.846h-35.428v2h32.781l-3.543 6h-15.428v2h36v-2zm-20.752-14c-.552 0-1-.448-1-1s.448-1 1-1 1 .448 1 1-.448 1-1 1zm4.889 0h-2.073c.112-.314.184-.648.184-1 0-1.654-1.346-3-3-3s-3 1.346-3 3c0 .352.072.686.184 1h-2.074c-.066-.328-.11-.66-.11-1 0-2.757 2.243-5 5-5s5 2.243 5 5c0 .34-.044.672-.111 1zm11.111-5c0-2.757 2.243-5 5-5s5 2.243 5 5-2.243 5-5 5-5-2.243-5-5z"/><path d="m40 29h2v2h-2z"/><path d="m36 29h2v2h-2z"/><path d="m32 29h2v2h-2z"/><path d="m8 30c-3.859 0-7-3.141-7-7s3.141-7 7-7 7 3.141 7 7-3.141 7-7 7zm0-9c-1.103 0-2 .897-2 2s.897 2 2 2 2-.897 2-2-.897-2-2-2z" fill="#f0bc5e"/><path d="m8 26c-1.654 0-3-1.346-3-3s1.346-3 3-3 3 1.346 3 3-1.346 3-3 3zm0-4c-.552 0-1 .448-1 1s.448 1 1 1 1-.448 1-1-.448-1-1-1z"/></svg>