<svg id="Layer_1" data-name="Layer 1" xmlns="http://www.w3.org/2000/svg" viewBox="0 0 277.71 68.14"><defs><style>.cls-1{fill:#464648;}.cls-2{fill:#fff;}</style></defs><title>Artboard 1</title><circle class="cls-1" cx="35" cy="34.07" r="30.74"/><polygon class="cls-2" points="13.08 19.48 29.22 19.48 34.06 27.81 30.16 31.93 26.55 25.24 16.26 25.24 13.08 19.48"/><polygon class="cls-2" points="31.16 33.58 34.99 29.28 37.8 34.02 34.07 38.22 31.16 33.58"/><polygon class="cls-2" points="38.73 35.51 34.9 40.09 40.43 49.92 58.11 19.48 34.05 19.48 36.83 24.83 48.35 24.83 40.63 38.71 38.73 35.51"/><path class="cls-2" d="M24.2,27.73,38.58,52.47l-3.22,4.84L17.8,27.73Z"/><path class="cls-1" d="M74.74,25.21H79.1V51.59H74.74Z"/><path class="cls-1" d="M86.67,25.21,104.21,41V25.21h4.4V51.59L91,35.8V51.55H86.67Z"/><path class="cls-1" d="M121.1,25.21l8.27,16.51,8.28-16.51h4.89L129.37,51.59,116.2,25.21Z"/><path class="cls-1" d="M150.13,25.21h4.37V51.59h-4.37Z"/><path class="cls-1" d="M175.3,25.21a12.75,12.75,0,0,1,5.1,1,13.45,13.45,0,0,1,4.19,2.84l-3.11,3.16a8.72,8.72,0,0,0-12.39,0,8.86,8.86,0,0,0-1.9,2.79,8.71,8.71,0,0,0,0,6.83,9.27,9.27,0,0,0,1.88,2.79,8.53,8.53,0,0,0,2.79,1.88,8.87,8.87,0,0,0,9.62-1.86l3.11,3.07a13.6,13.6,0,0,1-4.19,2.85,13.25,13.25,0,0,1-10.23,0A13.71,13.71,0,0,1,166,47.73a13.16,13.16,0,0,1-2.85-4.18,13,13,0,0,1,0-10.19A13.4,13.4,0,0,1,166,29.15a13.77,13.77,0,0,1,4.19-2.85A12.9,12.9,0,0,1,175.3,25.21Z"/><path class="cls-1" d="M192.18,25.21h22v4.4h-8.77v22H201V29.65H192.2Z"/><path class="cls-1" d="M243.74,40.62a10.62,10.62,0,0,1-3.23,7.78,11,11,0,0,1-18.77-7.78V25.21h4.36V40.62a6.56,6.56,0,0,0,6.53,6.59h.05a6.68,6.68,0,0,0,6.6-6.57V25.21h4.46Z"/><path class="cls-1" d="M258.94,40.62a7.67,7.67,0,0,1-5.42-13.09,7.21,7.21,0,0,1,5.42-2.32h14.28v4.4H258.94a3.51,3.51,0,0,0-1.28.25,3.31,3.31,0,0,0-1.07.7,3.4,3.4,0,0,0-1,2.32,3.26,3.26,0,0,0,1,2.35,3.11,3.11,0,0,0,2.35,1h6.57a7.67,7.67,0,1,1,.55,15.33H251.28V47.21h14.23A3.19,3.19,0,0,0,266.8,47a3.15,3.15,0,0,0,1.06-.68,3.09,3.09,0,0,0,.71-1,3.57,3.57,0,0,0,.24-1.3,3.21,3.21,0,0,0-1-2.31,3.1,3.1,0,0,0-2.32-1Z"/><rect class="cls-1" x="150.36" y="17.36" width="3.93" height="3.93" transform="translate(30.95 113.37) rotate(-45)"/></svg>