<?xml version="1.0" encoding="utf-8"?>
<!-- Generator: Adobe Illustrator 23.0.6, SVG Export Plug-In . SVG Version: 6.00 Build 0)  -->
<svg version="1.1" id="Layer_1" xmlns="http://www.w3.org/2000/svg" xmlns:xlink="http://www.w3.org/1999/xlink" x="0px" y="0px"
	 viewBox="0 0 278 66" style="enable-background:new 0 0 278 66;" xml:space="preserve">
<style type="text/css">
	.st0{fill:#464648;}
	.st1{fill:#FFFFFF;}
</style>
<circle class="st0" cx="35.3" cy="33" r="30.7"/>
<polygon class="st1" points="13.3,18.4 29.5,18.4 34.3,26.7 30.4,30.9 26.8,24.2 16.5,24.2 "/>
<polygon class="st1" points="31.4,32.5 35.3,28.2 38.1,33 34.3,37.2 "/>
<polygon class="st1" points="39,34.4 35.2,39 40.7,48.9 58.4,18.4 34.3,18.4 37.1,23.8 48.6,23.8 40.9,37.6 "/>
<g>
	<path class="st1" d="M24.5,26.7l14.4,24.7l-3.2,4.8L18.1,26.7H24.5z"/>
</g>
<g>
	<path class="st0" d="M74.8,24.2h4.4v26.3h-4.4V24.2z"/>
	<path class="st0" d="M86.7,24.2L104.2,40V24.2h4.4v26.3v0v0.1L91.1,34.8v15.7h-4.4V24.2z"/>
	<path class="st0" d="M121.1,24.2l8.3,16.5l8.3-16.5h4.9l-13.1,26.3l-13.1-26.3H121.1z"/>
	<path class="st0" d="M150.1,24.2h4.4v26.3h-4.4V24.2z"/>
	<path class="st0" d="M170.7,37.4l13.1,13.1h-6.2l-11.4-11.3v11.3H162V24.2h4.4v11.3l11.4-11.3h6.2L170.7,37.4z"/>
	<path class="st0" d="M191.5,24.2h21.9v4.4h-8.8v21.9h-4.4V28.6h-8.8V24.2z"/>
	<path class="st0" d="M242.9,39.6c0,3-1.1,5.6-3.2,7.8c-2.2,2.1-4.8,3.2-7.8,3.2c-3,0-5.6-1.1-7.7-3.2c-2.1-2.2-3.2-4.8-3.2-7.8
		V24.2h4.4v15.3c0,1.8,0.6,3.4,1.9,4.6c1.3,1.3,2.8,1.9,4.7,1.9s3.4-0.6,4.6-1.9c1.3-1.3,2-2.8,2-4.6V24.2h4.4V39.6z"/>
	<path class="st0" d="M258.1,39.6c-2.1,0-3.9-0.7-5.4-2.2s-2.2-3.3-2.2-5.5c0-2.1,0.7-3.9,2.2-5.4c1.5-1.5,3.3-2.3,5.4-2.3h14.2v4.4
		h-14.2c-0.5,0-0.9,0.1-1.3,0.2c-0.4,0.2-0.8,0.4-1.1,0.7c-0.3,0.3-0.5,0.7-0.7,1.1c-0.2,0.4-0.2,0.8-0.2,1.3c0,0.9,0.3,1.7,0.9,2.3
		c0.6,0.7,1.4,1,2.3,1h6.6c2.1,0,3.9,0.7,5.4,2.2c1.5,1.5,2.3,3.3,2.3,5.4c0,2.1-0.8,3.9-2.3,5.4c-1.5,1.5-3.3,2.2-5.4,2.2h-14.2
		v-4.4h14.2c0.5,0,0.9-0.1,1.3-0.2s0.8-0.4,1.1-0.7c0.3-0.3,0.5-0.6,0.7-1s0.2-0.8,0.2-1.3c0-0.9-0.3-1.7-1-2.3
		c-0.6-0.7-1.4-1-2.3-1H258.1z"/>
</g>
<rect x="150.3" y="16.3" transform="matrix(0.7071 -0.7071 0.7071 0.7071 31.6868 113.0029)" class="st0" width="3.9" height="3.9"/>
</svg>
