<?xml version="1.0" encoding="utf-8"?>
<!-- Generator: Adobe Illustrator 23.0.6, SVG Export Plug-In . SVG Version: 6.00 Build 0)  -->
<svg version="1.1" id="Layer_1" xmlns="http://www.w3.org/2000/svg" xmlns:xlink="http://www.w3.org/1999/xlink" x="0px" y="0px"
	 viewBox="0 0 328 115.7" style="enable-background:new 0 0 328 115.7;" xml:space="preserve">
<style type="text/css">
	.st0{fill:#464648;}
	.st1{fill:#FFFFFF;}
</style>
<g>
	<circle class="st0" cx="60.3" cy="57.9" r="30.7"/>
	<polygon class="st1" points="38.3,43.3 54.5,43.3 59.3,51.6 55.4,55.7 51.8,49 41.5,49 	"/>
	<polygon class="st1" points="56.4,57.4 60.3,53.1 63.1,57.8 59.3,62 	"/>
	<polygon class="st1" points="64,59.3 60.2,63.9 65.7,73.7 83.4,43.3 59.3,43.3 62.1,48.6 73.6,48.6 65.9,62.5 	"/>
	<g>
		<path class="st1" d="M49.5,51.5l14.4,24.7l-3.2,4.8L43.1,51.5H49.5z"/>
	</g>
	<g>
		<path class="st0" d="M99.8,49.1h4.4v26.3h-4.4V49.1z"/>
		<path class="st0" d="M111.6,49.1l17.5,15.8V49.1h4.4v26.3v0v0.1l-17.5-15.8v15.7h-4.4V49.1z"/>
		<path class="st0" d="M145.7,49.1l8.3,16.5l8.3-16.5h4.9L154,75.4l-13.1-26.3H145.7z"/>
		<g>
			
				<rect x="175.4" y="41.1" transform="matrix(0.7071 -0.7071 0.7071 0.7071 21.4551 138.0159)" class="st0" width="3.9" height="3.9"/>
			<path class="st0" d="M175.1,49.1h4.4v26.3h-4.4V49.1z"/>
		</g>
		<path class="st0" d="M196.3,62.2l13.1,13.1h-6.2l-11.4-11.3v11.3h-4.4V49.1h4.4v11.3l11.4-11.3h6.2L196.3,62.2z"/>
		<path class="st0" d="M216.8,49.1h21.9v4.4H230v21.9h-4.4V53.5h-8.8V49.1z"/>
		<path class="st0" d="M268.1,64.4c0,3-1.1,5.6-3.2,7.8c-2.2,2.1-4.8,3.2-7.8,3.2c-3,0-5.6-1.1-7.7-3.2c-2.1-2.2-3.2-4.8-3.2-7.8
			V49.1h4.4v15.3c0,1.8,0.6,3.4,1.9,4.6c1.3,1.3,2.8,1.9,4.7,1.9s3.4-0.6,4.6-1.9c1.3-1.3,2-2.8,2-4.6V49.1h4.4V64.4z"/>
		<path class="st0" d="M283.1,64.4c-2.1,0-3.9-0.7-5.4-2.2s-2.2-3.3-2.2-5.5c0-2.1,0.7-3.9,2.2-5.4c1.5-1.5,3.3-2.3,5.4-2.3h14.2
			v4.4h-14.2c-0.5,0-0.9,0.1-1.3,0.2c-0.4,0.2-0.8,0.4-1.1,0.7c-0.3,0.3-0.5,0.7-0.7,1.1c-0.2,0.4-0.2,0.8-0.2,1.3
			c0,0.9,0.3,1.7,0.9,2.3c0.6,0.7,1.4,1,2.3,1h6.6c2.1,0,3.9,0.7,5.4,2.2c1.5,1.5,2.3,3.3,2.3,5.4c0,2.1-0.8,3.9-2.3,5.4
			c-1.5,1.5-3.3,2.2-5.4,2.2h-14.2V71h14.2c0.5,0,0.9-0.1,1.3-0.2s0.8-0.4,1.1-0.7c0.3-0.3,0.5-0.6,0.7-1s0.2-0.8,0.2-1.3
			c0-0.9-0.3-1.7-1-2.3c-0.6-0.7-1.4-1-2.3-1H283.1z"/>
	</g>
</g>
</svg>
