<svg id="Layer_1" data-name="Layer 1" xmlns="http://www.w3.org/2000/svg" viewBox="0 0 331.71 84.86"><defs><style>.cls-1{fill:#1263a1;}.cls-2{fill:#38b772;}.cls-3{fill:#fff;}</style></defs><title>Artboard 1</title><path class="cls-1" d="M90.61,33.86h5.06V64.43H90.61Z"/><path class="cls-1" d="M104.48,33.82l20.34,18.32V33.82h5.11V64.43L109.54,46.11V64.38h-5.06Z"/><path class="cls-1" d="M144.42,33.86,154,53l9.6-19.16h5.68L154,64.43,138.74,33.86Z"/><path class="cls-1" d="M178.11,33.86h5.06V64.43h-5.06Z"/><path class="cls-1" d="M202.15,49.14l15.28,15.29h-7.18L197,51.3V64.43H192V33.86H197V47l13.21-13.17h7.18Z"/><path class="cls-1" d="M226.24,33.86h25.5V39H241.57V64.43h-5.11V39H226.24Z"/><path class="cls-1" d="M286,51.7a12.34,12.34,0,0,1-3.74,9,12.71,12.71,0,0,1-21.72-9V33.86h5.07V51.7a7.64,7.64,0,0,0,15.28,0V33.86H286Z"/><path class="cls-1" d="M303.7,51.7a8.86,8.86,0,0,1-8.89-8.94,8.51,8.51,0,0,1,2.59-6.25,8.41,8.41,0,0,1,6.3-2.65h16.56V39H303.7a4,4,0,0,0-1.5.29,3.66,3.66,0,0,0-1.23.81,3.7,3.7,0,0,0-.81,1.24,3.88,3.88,0,0,0,.81,4.18,3.66,3.66,0,0,0,2.73,1.14h7.62a8.88,8.88,0,0,1,6.3,15.2,8.58,8.58,0,0,1-6.3,2.6H294.81V59.32h16.51a4,4,0,0,0,1.5-.29,3.76,3.76,0,0,0,1.23-.79,3.65,3.65,0,0,0,.82-1.21,4,4,0,0,0,.28-1.5A3.7,3.7,0,0,0,314,52.84a3.6,3.6,0,0,0-2.69-1.14Z"/><rect class="cls-2" x="178.37" y="24.63" width="4.56" height="4.56" transform="translate(33.88 135.62) rotate(-45)"/><path class="cls-1" d="M25.55,15.5A34.39,34.39,0,1,1,62,73.81Z"/><path class="cls-2" d="M25.55,15.5,62,73.81A34.39,34.39,0,0,1,25.55,15.5Z"/><polygon class="cls-3" points="17.02 29.86 35.77 29.08 41.79 38.51 37.46 43.48 32.95 35.89 21 36.39 17.02 29.86"/><polygon class="cls-3" points="38.7 45.35 42.95 40.18 46.44 45.54 42.31 50.6 38.7 45.35"/><polygon class="cls-3" points="47.59 47.22 43.37 52.73 50.26 63.88 69.33 27.68 41.38 28.84 44.87 34.92 58.24 34.36 49.96 50.85 47.59 47.22"/><path class="cls-3" d="M30.34,38.9l17.9,28-3.51,5.78L22.91,39.21Z"/></svg>