<svg height="410pt" viewBox="0 -25 410 410" width="410pt" xmlns="http://www.w3.org/2000/svg"><path d="m410 40v58.089844h-410v-58.089844c0-22.089844 17.910156-40 40-40h330c22.089844 0 40 17.910156 40 40zm0 0" fill="#f8ec7d"/><g fill="#e48e66"><path d="m180.710938 34.5c8.367187.027344 15.125 6.832031 15.097656 15.199219-.027344 8.367187-6.832032 15.128906-15.199219 15.101562-8.367187-.027343-15.125-6.832031-15.097656-15.199219.03125-8.367187 6.832031-15.125 15.199219-15.101562zm0 0"/><path d="m410 98.089844v221.988281c0 22.09375-17.910156 40-40 40h-330c-22.089844 0-40-17.90625-40-40v-221.988281zm0 0"/><path d="m112.648438 34.289062c8.367187.027344 15.128906 6.832032 15.101562 15.199219-.027344 8.367188-6.832031 15.128907-15.199219 15.101563-8.367187-.027344-15.128906-6.832032-15.101562-15.199219.011719-4.019531 1.621093-7.871094 4.46875-10.703125 2.851562-2.832031 6.714843-4.414062 10.730469-4.398438zm0 0"/><path d="m44.589844 34.070312c8.371094.023438 15.136718 6.828126 15.109375 15.199219-.023438 8.371094-6.828125 15.136719-15.199219 15.109375-8.371094-.023437-15.136719-6.828125-15.109375-15.199218.007813-4.019532 1.617187-7.871094 4.46875-10.707032 2.851563-2.832031 6.710937-4.417968 10.730469-4.402344zm0 0"/><path d="m275 249.46875v-32.839844h-140v32.839844l48.609375 54.492188v50.058593l42.78125-20.328125v-29.730468zm0 0"/></g><path d="m275 229.039062v10.429688l-48.609375 54.492188v29.730468l-42.78125 20.328125v-50.058593l-48.609375-54.492188v-10.429688zm0 0" fill="#af593c"/><path d="m135 206.628906h140v22.410156h-140zm0 0" fill="#bf6147"/><path d="m190.335938 150.667969-21.664063 20.6875v-50.296875c0-3.867188-3.136719-7-7-7-3.867187 0-7 3.132812-7 7v50.296875l-21.679687-20.691407c-2.796876-2.667968-7.226563-2.566406-9.894532.230469-2.671875 2.796875-2.566406 7.226563.226563 9.894531l33.511719 31.992188c2.707031 2.582031 6.964843 2.582031 9.667968 0l33.496094-31.988281c2.757812-2.675781 2.839844-7.078125.1875-9.855469-2.65625-2.78125-7.054688-2.898438-9.855469-.269531zm0 0" fill="#af593c"/><path d="m286.675781 147.984375-33.511719-31.988281c-2.707031-2.582032-6.964843-2.582032-9.667968 0l-33.496094 31.992187c-2.796875 2.667969-2.898438 7.101563-.226562 9.894531 2.667968 2.796876 7.101562 2.898438 9.894531.230469l21.59375-20.625-.261719 50.515625c-.019531 3.867188 3.097656 7.015625 6.964844 7.035156h.035156c3.851562 0 6.980469-3.109374 7-6.964843l.261719-50.71875 21.746093 20.757812c2.796876 2.667969 7.226563 2.566407 9.894532-.230469 2.671875-2.796874 2.566406-7.226562-.226563-9.898437zm0 0" fill="#af593c"/></svg>