<svg height="512pt" viewBox="0 0 512 512" width="512pt" xmlns="http://www.w3.org/2000/svg"><path d="m485.714844 511.996094h-459.433594c-14.515625 0-26.28125-11.765625-26.28125-26.28125v-459.433594c0-14.515625 11.765625-26.28125 26.28125-26.28125h459.433594c14.515625 0 26.28125 11.765625 26.28125 26.28125v459.433594c0 14.515625-11.765625 26.28125-26.28125 26.28125zm0 0" fill="#e7e7e7"/><path d="m512 26.277344v459.4375c0 14.519531-11.765625 26.285156-26.285156 26.285156h-27.085938c14.515625 0 26.285156-11.765625 26.285156-26.285156v-459.4375c0-14.507813-11.769531-26.27343775-26.285156-26.27343775h27.085938c14.519531 0 26.285156 11.76562475 26.285156 26.27343775zm0 0" fill="#cecece"/><path d="m511.996094 89.664062h-511.996094v-63.382812c0-14.515625 11.765625-26.28125 26.28125-26.28125h459.433594c14.515625 0 26.28125 11.765625 26.28125 26.28125zm0 0" fill="#acacac"/><path d="m512 26.277344v63.386718h-27.089844v-63.386718c0-14.507813-11.765625-26.27343775-26.28125-26.27343775h27.085938c14.519531 0 26.285156 11.76562475 26.285156 26.27343775zm0 0" fill="#9c9c9c"/><path d="m63.644531 44.613281c0 8.257813-6.695312 14.949219-14.953125 14.949219-8.253906 0-14.949218-6.691406-14.949218-14.949219 0-8.257812 6.695312-14.949219 14.949218-14.949219 8.257813 0 14.953125 6.691407 14.953125 14.949219zm0 0" fill="#ff5770"/><path d="m121.382812 44.613281c0 8.257813-6.695312 14.949219-14.949218 14.949219-8.257813 0-14.953125-6.691406-14.953125-14.949219 0-8.257812 6.695312-14.949219 14.953125-14.949219 8.253906 0 14.949218 6.691407 14.949218 14.949219zm0 0" fill="#ffd86e"/><path d="m179.121094 44.613281c0 8.257813-6.695313 14.949219-14.949219 14.949219-8.257813 0-14.953125-6.691406-14.953125-14.949219 0-8.257812 6.695312-14.949219 14.953125-14.949219 8.253906 0 14.949219 6.691407 14.949219 14.949219zm0 0" fill="#80e0dc"/><path d="m63.640625 44.617188c0 8.253906-6.6875 14.941406-14.941406 14.941406-4 0-7.636719-1.566406-10.3125-4.132813 8.085937-.175781 14.597656-6.789062 14.597656-14.929687 0-4.265625-1.78125-8.097656-4.636719-10.820313.113282-.011719.238282-.011719.351563-.011719 8.253906.003907 14.941406 6.691407 14.941406 14.953126zm0 0" fill="#ff435f"/><path d="m121.378906 44.617188c0 8.253906-6.6875 14.941406-14.949218 14.941406-3.996094 0-7.625-1.566406-10.3125-4.132813 8.097656-.175781 14.609374-6.789062 14.609374-14.929687 0-4.265625-1.785156-8.097656-4.636718-10.820313.113281-.011719.226562-.011719.339844-.011719 8.261718.003907 14.949218 6.691407 14.949218 14.953126zm0 0" fill="#ffb509"/><path d="m179.121094 44.617188c0 8.253906-6.695313 14.941406-14.949219 14.941406-4 0-7.625-1.566406-10.316406-4.132813 8.101562-.175781 14.601562-6.789062 14.601562-14.929687 0-4.265625-1.78125-8.097656-4.636719-10.820313.113282-.011719.238282-.011719.351563-.011719 8.253906.003907 14.949219 6.691407 14.949219 14.953126zm0 0" fill="#00a8b0"/><path d="m449.132812 257.992188h-190.394531c-6.753906 0-12.230469-5.476563-12.230469-12.226563v-108.214844c0-6.753906 5.476563-12.226562 12.230469-12.226562h190.394531c6.753907 0 12.226563 5.472656 12.226563 12.226562v108.214844c0 6.75-5.472656 12.226563-12.226563 12.226563zm0 0" fill="#ff5770"/><path d="m449.132812 445.085938h-190.394531c-6.753906 0-12.230469-5.472657-12.230469-12.226563v-108.214844c0-6.75 5.476563-12.226562 12.230469-12.226562h190.394531c6.753907 0 12.226563 5.476562 12.226563 12.226562v108.214844c0 6.753906-5.472656 12.226563-12.226563 12.226563zm0 0" fill="#ff5770"/><path d="m449.132812 257.992188h-13.523437v-132.671876h13.523437c6.753907 0 12.226563 5.476563 12.226563 12.230469v108.210938c0 6.753906-5.472656 12.230469-12.226563 12.230469zm0 0" fill="#ff435f"/><path d="m449.132812 445.085938h-13.523437v-132.667969h13.523437c6.753907 0 12.226563 5.472656 12.226563 12.226562v108.214844c0 6.753906-5.472656 12.226563-12.226563 12.226563zm0 0" fill="#ff435f"/><path d="m368.648438 293.457031h-122.140626c-4.140624 0-7.5-3.359375-7.5-7.5 0-4.144531 3.359376-7.5 7.5-7.5h122.140626c4.144531 0 7.5 3.355469 7.5 7.5 0 4.140625-3.355469 7.5-7.5 7.5zm0 0" fill="#0396fd"/><path d="m461.359375 293.457031h-51.503906c-4.144531 0-7.5-3.359375-7.5-7.5 0-4.144531 3.355469-7.5 7.5-7.5h51.503906c4.144531 0 7.5 3.355469 7.5 7.5 0 4.140625-3.355469 7.5-7.5 7.5zm0 0" fill="#0396fd"/><path d="m368.648438 480.550781h-122.140626c-4.140624 0-7.5-3.355469-7.5-7.5s3.359376-7.5 7.5-7.5h122.140626c4.144531 0 7.5 3.355469 7.5 7.5s-3.355469 7.5-7.5 7.5zm0 0" fill="#0396fd"/><path d="m461.359375 480.550781h-51.503906c-4.144531 0-7.5-3.355469-7.5-7.5s3.355469-7.5 7.5-7.5h51.503906c4.144531 0 7.5 3.355469 7.5 7.5s-3.355469 7.5-7.5 7.5zm0 0" fill="#0396fd"/><g fill="#5a5a5a"><path d="m52.816406 132.824219h-14.953125c-4.140625 0-7.5-3.359375-7.5-7.5 0-4.144531 3.359375-7.5 7.5-7.5h14.953125c4.140625 0 7.5 3.355469 7.5 7.5 0 4.140625-3.359375 7.5-7.5 7.5zm0 0"/><path d="m52.816406 171.460938h-14.953125c-4.140625 0-7.5-3.359376-7.5-7.5 0-4.144532 3.359375-7.5 7.5-7.5h14.953125c4.140625 0 7.5 3.355468 7.5 7.5 0 4.140624-3.359375 7.5-7.5 7.5zm0 0"/><path d="m52.816406 210.09375h-14.953125c-4.140625 0-7.5-3.355469-7.5-7.5 0-4.140625 3.359375-7.5 7.5-7.5h14.953125c4.140625 0 7.5 3.359375 7.5 7.5 0 4.144531-3.359375 7.5-7.5 7.5zm0 0"/><path d="m52.816406 248.730469h-14.953125c-4.140625 0-7.5-3.355469-7.5-7.5 0-4.140625 3.359375-7.5 7.5-7.5h14.953125c4.140625 0 7.5 3.359375 7.5 7.5 0 4.144531-3.359375 7.5-7.5 7.5zm0 0"/><path d="m52.816406 287.367188h-14.953125c-4.140625 0-7.5-3.355469-7.5-7.5 0-4.140626 3.359375-7.5 7.5-7.5h14.953125c4.140625 0 7.5 3.359374 7.5 7.5 0 4.144531-3.359375 7.5-7.5 7.5zm0 0"/><path d="m52.816406 326.003906h-14.953125c-4.140625 0-7.5-3.355468-7.5-7.5 0-4.140625 3.359375-7.5 7.5-7.5h14.953125c4.140625 0 7.5 3.359375 7.5 7.5 0 4.144532-3.359375 7.5-7.5 7.5zm0 0"/><path d="m52.816406 364.640625h-14.953125c-4.140625 0-7.5-3.355469-7.5-7.5 0-4.140625 3.359375-7.5 7.5-7.5h14.953125c4.140625 0 7.5 3.359375 7.5 7.5 0 4.144531-3.359375 7.5-7.5 7.5zm0 0"/><path d="m52.816406 403.277344h-14.953125c-4.140625 0-7.5-3.355469-7.5-7.5 0-4.140625 3.359375-7.5 7.5-7.5h14.953125c4.140625 0 7.5 3.359375 7.5 7.5 0 4.144531-3.359375 7.5-7.5 7.5zm0 0"/><path d="m52.816406 441.914062h-14.953125c-4.140625 0-7.5-3.355468-7.5-7.5 0-4.140624 3.359375-7.5 7.5-7.5h14.953125c4.140625 0 7.5 3.359376 7.5 7.5 0 4.144532-3.359375 7.5-7.5 7.5zm0 0"/><path d="m52.816406 480.550781h-14.953125c-4.140625 0-7.5-3.355469-7.5-7.5s3.359375-7.5 7.5-7.5h14.953125c4.140625 0 7.5 3.355469 7.5 7.5s-3.359375 7.5-7.5 7.5zm0 0"/><path d="m153.34375 132.824219h-72.691406c-4.140625 0-7.5-3.359375-7.5-7.5 0-4.144531 3.359375-7.5 7.5-7.5h72.691406c4.140625 0 7.5 3.355469 7.5 7.5 0 4.140625-3.359375 7.5-7.5 7.5zm0 0"/><path d="m153.34375 287.367188h-72.691406c-4.140625 0-7.5-3.355469-7.5-7.5 0-4.140626 3.359375-7.5 7.5-7.5h72.691406c4.140625 0 7.5 3.359374 7.5 7.5 0 4.144531-3.359375 7.5-7.5 7.5zm0 0"/><path d="m153.34375 364.640625h-72.691406c-4.140625 0-7.5-3.355469-7.5-7.5 0-4.140625 3.359375-7.5 7.5-7.5h72.691406c4.140625 0 7.5 3.359375 7.5 7.5 0 4.144531-3.359375 7.5-7.5 7.5zm0 0"/><path d="m121.382812 171.460938h-40.730468c-4.140625 0-7.5-3.359376-7.5-7.5 0-4.144532 3.359375-7.5 7.5-7.5h40.730468c4.140626 0 7.5 3.355468 7.5 7.5 0 4.140624-3.359374 7.5-7.5 7.5zm0 0"/><path d="m121.382812 210.09375h-40.730468c-4.140625 0-7.5-3.355469-7.5-7.5 0-4.140625 3.359375-7.5 7.5-7.5h40.730468c4.140626 0 7.5 3.359375 7.5 7.5 0 4.144531-3.359374 7.5-7.5 7.5zm0 0"/><path d="m121.382812 480.550781h-40.730468c-4.140625 0-7.5-3.355469-7.5-7.5s3.359375-7.5 7.5-7.5h40.730468c4.140626 0 7.5 3.355469 7.5 7.5s-3.359374 7.5-7.5 7.5zm0 0"/><path d="m101.019531 326.003906h-20.367187c-4.140625 0-7.5-3.355468-7.5-7.5 0-4.140625 3.359375-7.5 7.5-7.5h20.367187c4.140625 0 7.5 3.359375 7.5 7.5 0 4.144532-3.359375 7.5-7.5 7.5zm0 0"/><path d="m140.660156 248.730469h-60.007812c-4.140625 0-7.5-3.355469-7.5-7.5 0-4.140625 3.359375-7.5 7.5-7.5h60.007812c4.144532 0 7.5 3.359375 7.5 7.5 0 4.144531-3.355468 7.5-7.5 7.5zm0 0"/><path d="m140.660156 403.277344h-60.007812c-4.140625 0-7.5-3.355469-7.5-7.5 0-4.140625 3.359375-7.5 7.5-7.5h60.007812c4.144532 0 7.5 3.359375 7.5 7.5 0 4.144531-3.355468 7.5-7.5 7.5zm0 0"/><path d="m140.660156 441.914062h-60.007812c-4.140625 0-7.5-3.355468-7.5-7.5 0-4.140624 3.359375-7.5 7.5-7.5h60.007812c4.144532 0 7.5 3.359376 7.5 7.5 0 4.144532-3.355468 7.5-7.5 7.5zm0 0"/></g></svg>